<?xml version="1.0" standalone="no"?>
<!DOCTYPE svg PUBLIC "-//W3C//DTD SVG 20010904//EN"
 "http://www.w3.org/TR/2001/REC-SVG-20010904/DTD/svg10.dtd">
<svg version="1.0" xmlns="http://www.w3.org/2000/svg"
 width="476.000000pt" height="476.000000pt" viewBox="0 0 476.000000 476.000000"
 preserveAspectRatio="xMidYMid meet">
<metadata>
Created by potrace 1.14, written by Peter Selinger 2001-2017
</metadata>
<g transform="translate(0.000000,476.000000) scale(0.100000,-0.100000)"
fill="#000000" stroke="none">
<path d="M1375 4689 c-342 -233 -615 -564 -772 -939 -53 -125 -105 -287 -119
-370 -3 -14 -7 -32 -10 -42 -7 -24 -23 -123 -32 -198 -9 -85 -9 -384 1 -480
25 -237 104 -500 218 -726 287 -565 786 -965 1405 -1124 62 -16 134 -31 160
-35 27 -4 60 -9 74 -11 14 -2 68 -7 120 -11 52 -3 97 -7 99 -9 2 -2 5 -125 5
-274 1 -263 1 -270 -19 -270 -11 -1 -94 -3 -185 -5 -214 -5 -351 -14 -506 -35
-87 -12 -120 -23 -133 -48 -20 -37 37 -63 171 -77 29 -4 67 -8 83 -10 227 -31
1243 -25 1468 9 18 2 54 8 81 12 32 4 58 15 74 31 23 23 23 25 7 43 -40 44
-342 73 -825 80 -13 0 -15 37 -15 275 0 238 2 275 15 275 51 1 250 32 345 53
272 63 529 181 780 362 84 60 115 86 222 189 75 72 83 83 83 117 0 29 -6 42
-26 58 -46 37 -75 28 -151 -45 -91 -88 -232 -201 -318 -256 -798 -511 -1827
-403 -2495 262 -318 317 -523 735 -577 1180 -17 143 -8 458 17 575 5 22 11 56
14 75 3 19 15 69 26 110 129 466 419 866 825 1140 40 27 75 56 79 65 20 53
-18 115 -71 115 -18 0 -61 -23 -118 -61z"/>
<path d="M2700 4743 c0 -4 7 -46 15 -93 14 -83 17 -102 30 -205 3 -27 8 -61
10 -75 3 -14 7 -52 10 -85 3 -33 10 -94 15 -135 5 -41 12 -110 16 -154 3 -43
8 -85 9 -95 2 -9 4 -32 4 -52 l1 -35 49 -3 c28 -1 59 -4 71 -6 12 -2 51 -7 88
-10 37 -3 108 -13 157 -21 50 -8 101 -17 115 -19 236 -40 595 -149 885 -270
75 -31 138 -55 141 -53 2 3 -8 42 -23 88 l-26 83 -131 62 c-201 95 -501 206
-693 255 l-41 10 -12 73 c-6 39 -15 87 -20 105 -5 17 -5 32 -1 32 17 0 301
-99 386 -135 49 -21 133 -59 187 -85 145 -72 143 -72 106 -3 -46 88 -60 104
-124 140 -111 64 -309 156 -458 212 -90 34 -150 63 -152 71 -1 8 -11 44 -23
80 -11 35 -19 66 -17 68 2 2 12 -1 23 -7 10 -6 58 -26 106 -46 131 -53 287
-136 420 -226 108 -72 116 -75 89 -41 -122 153 -399 345 -642 445 -118 49
-320 106 -435 122 -93 13 -135 16 -135 8z"/>
<path d="M1670 4498 c-121 -76 -258 -180 -335 -255 -130 -127 -283 -346 -369
-528 -37 -79 -98 -236 -93 -241 2 -2 80 21 173 51 237 78 513 152 744 200 43
9 190 35 225 40 22 4 51 8 65 11 52 8 173 21 290 30 47 3 99 8 115 9 17 2 36
4 43 4 11 1 12 19 7 89 -10 110 -11 117 -21 116 -5 -1 -54 -5 -109 -8 -55 -4
-113 -9 -130 -11 -16 -2 -55 -6 -85 -10 -30 -3 -77 -10 -105 -15 -27 -5 -68
-12 -90 -15 -38 -5 -226 -44 -310 -64 -28 -7 -42 -7 -47 2 -3 6 -5 14 -3 17 3
6 10 49 20 125 6 40 35 192 60 308 2 10 16 56 30 103 14 47 25 89 23 94 -2 4
-46 -19 -98 -52z"/>
<path d="M2297 3724 c-1 -1 -33 -4 -72 -8 -126 -12 -175 -19 -176 -25 0 -3 -2
-14 -4 -24 -2 -9 -6 -50 -10 -90 -3 -39 -8 -88 -10 -107 -5 -40 -15 -169 -30
-380 -18 -244 -23 -517 -12 -635 20 -218 116 -401 251 -480 115 -68 278 -91
427 -61 227 47 342 187 400 491 15 74 19 755 6 1060 -3 83 -6 169 -6 192 -1
40 -3 42 -33 47 -67 11 -126 17 -219 22 l-96 6 -2 -249 c-6 -677 -13 -992 -27
-1068 -21 -124 -67 -175 -158 -177 -93 -1 -142 50 -165 172 -9 52 -8 406 4
680 15 368 24 562 30 608 l4 33 -51 -3 c-27 -2 -50 -4 -51 -4z"/>
<path d="M3180 3674 c0 -3 77 -209 171 -458 240 -632 237 -622 234 -681 -2
-27 -6 -106 -9 -175 -8 -159 -15 -259 -22 -289 -5 -23 -3 -23 38 -17 23 4 107
25 185 48 120 34 144 45 148 62 12 50 35 228 40 311 3 50 8 104 10 120 4 32
70 175 238 515 56 113 101 209 102 213 0 5 -20 17 -45 27 -25 10 -68 27 -96
39 -28 11 -94 36 -147 55 l-97 35 -6 -27 c-11 -51 -125 -436 -133 -449 -4 -8
-48 90 -116 259 -150 377 -125 339 -237 366 -51 12 -104 25 -118 27 -147 28
-140 27 -140 19z"/>
<path d="M1535 3579 c-50 -7 -136 -29 -210 -54 -22 -7 -132 -43 -245 -80 -113
-37 -206 -69 -208 -70 -6 -5 -32 -111 -38 -155 -3 -25 -8 -47 -9 -51 -18 -29
-26 -388 -12 -509 12 -106 37 -237 62 -324 16 -54 18 -56 73 -77 226 -87 288
-107 279 -92 -3 4 -8 35 -11 68 -4 33 -9 71 -11 85 -2 14 -6 57 -10 95 -3 39
-8 95 -11 126 l-5 56 53 -5 c29 -3 100 -5 158 -5 86 -1 115 3 161 21 126 50
215 193 254 407 11 59 14 301 4 350 -22 117 -89 200 -171 211 -18 3 -37 6 -43
8 -5 1 -32 -1 -60 -5z m-123 -327 c24 -24 31 -111 16 -210 -21 -139 -63 -180
-186 -180 l-61 0 5 77 c6 103 20 242 30 292 4 23 12 28 57 36 75 14 115 10
139 -15z"/>
<path d="M4291 2611 c-11 -11 -21 -41 -26 -77 -7 -56 -56 -241 -70 -263 -17
-29 -22 5 -8 62 22 92 21 87 38 209 l7 48 -29 -10 c-24 -9 -29 -17 -31 -48 -2
-20 -12 -90 -23 -154 -15 -87 -17 -123 -9 -137 14 -27 48 -15 77 28 23 35 76
185 93 266 5 28 12 60 15 73 6 27 -8 29 -34 3z"/>
<path d="M4042 2523 c-47 -16 -45 -10 -66 -163 -25 -174 -26 -190 -7 -190 34
1 101 40 120 71 17 28 31 90 44 194 5 43 -10 92 -30 97 -10 3 -37 -2 -61 -9z
m33 -73 c10 -16 -14 -152 -31 -177 -17 -27 -34 -30 -30 -5 2 9 7 44 12 77 4
33 8 63 10 68 1 4 2 16 3 27 1 21 25 27 36 10z"/>
<path d="M910 2189 c0 -18 102 -223 149 -298 63 -103 145 -212 220 -294 60
-67 156 -157 167 -157 3 0 -15 26 -39 58 -55 72 -170 243 -165 247 1 1 41 -46
88 -105 48 -60 101 -117 123 -129 42 -25 41 -27 28 67 -8 54 2 81 14 40 4 -13
40 -91 81 -173 l73 -150 71 -38 c38 -21 70 -37 70 -34 0 2 -20 52 -44 110 -67
160 -151 441 -172 573 -3 23 -9 46 -13 53 -4 6 -45 22 -92 36 -99 29 -96 28
-96 13 0 -7 -6 -51 -12 -98 -6 -46 -11 -109 -11 -140 l0 -55 -57 83 c-32 46
-93 138 -136 205 l-78 122 -85 37 c-46 20 -84 32 -84 27z"/>
<path d="M4225 2181 c-13 -11 -216 -91 -329 -129 -49 -17 -92 -34 -96 -39 -4
-4 -15 -42 -25 -83 -40 -169 -114 -369 -201 -541 l-45 -91 31 19 c92 53 273
203 345 283 26 29 20 27 -50 -21 -44 -31 -86 -59 -93 -63 -7 -4 3 21 22 56 32
59 41 67 137 125 89 54 107 69 141 122 21 33 38 63 38 66 0 3 -44 -17 -97 -45
-54 -27 -99 -46 -101 -40 -2 5 4 22 13 39 8 17 15 32 14 33 0 2 2 15 6 30 5
20 20 32 58 48 155 67 212 99 224 127 25 61 43 106 43 109 0 7 -26 4 -35 -5z"/>
<path d="M3300 1900 c-52 -10 -117 -21 -144 -24 -28 -4 -52 -9 -55 -11 -2 -3
-6 -24 -7 -48 -15 -259 -13 -241 -40 -472 -9 -77 -17 -142 -19 -145 -2 -3 -6
-29 -10 -58 l-6 -53 28 7 c89 20 222 73 276 109 124 83 229 239 281 419 30
102 33 159 10 216 -32 80 -118 97 -314 60z m98 -159 c22 -2 40 -59 31 -105 -4
-22 -10 -57 -13 -76 -11 -70 -46 -168 -77 -209 -28 -39 -112 -91 -125 -78 -3
3 6 65 20 138 14 74 28 154 31 179 4 25 8 54 10 65 2 11 4 32 4 47 1 22 7 28
39 35 20 5 44 8 52 7 8 -1 21 -3 28 -3z"/>
<path d="M1841 1900 c-84 -20 -122 -81 -122 -195 1 -61 4 -79 36 -191 76 -262
246 -434 430 -434 48 0 75 17 107 67 21 35 23 48 22 173 -4 364 -96 530 -322
579 -59 12 -101 13 -151 1z m181 -176 c32 -16 62 -73 72 -134 3 -19 8 -46 10
-60 30 -164 37 -283 18 -302 -6 -6 -26 -8 -47 -4 -52 10 -91 68 -120 176 -1 5
-21 93 -31 140 -3 14 -6 55 -8 92 -3 52 0 71 14 85 21 24 55 26 92 7z"/>
<path d="M2797 1842 c-18 -4 -17 16 -19 -314 -1 -65 -4 -118 -7 -118 -3 0 -53
96 -111 213 l-105 212 -83 3 -84 3 6 -108 c3 -59 8 -155 11 -213 3 -58 8 -125
10 -150 2 -25 7 -92 11 -150 3 -58 9 -121 13 -140 l7 -35 77 -5 78 -5 -5 188
c-3 103 -2 186 2 183 4 -2 48 -84 97 -181 l90 -176 40 5 c22 3 48 5 57 5 19 1
50 29 44 40 -3 4 -1 38 4 76 5 39 12 111 15 160 3 50 8 104 10 120 2 17 7 112
11 213 l7 183 -79 -3 c-44 -2 -87 -4 -97 -6z"/>
</g>
</svg>
